<svg width="95" height="95" viewBox="0 0 95 95" fill="none" xmlns="http://www.w3.org/2000/svg">
<path d="M90.7 32.2H64.8C63.5 32.2 62.8 33.8 63.8 34.7L89.9 60.7C90.7 61.5 92 61.1 92.3 60.1C93.5 56 94.1 51.6 94.1 47.1C94.1 42.3 93.4 37.6 92 33.2C91.9 32.6 91.4 32.2 90.7 32.2Z" fill="#005C3C"/>
<path d="M88.5 67.4L70.2 49.2C69.3 48.3 67.7 48.9 67.7 50.2V87C67.7 88.1 68.9 88.8 69.9 88.3C77.9 83.9 84.5 77.2 88.8 69.1C89 68.6 88.9 67.9 88.5 67.4Z" fill="#005C3C"/>
<path d="M59.5 63.8L33.5 89.9C32.7 90.7 33.1 92 34.1 92.3C38.2 93.5 42.6 94.1 47.1 94.1C51.9 94.1 56.6 93.4 61 92C61.6 91.8 62 91.2 62 90.6V64.7C62 63.6 60.4 62.9 59.5 63.8Z" fill="#005C3C"/>
<path d="M44 67.7H7.2C6.1 67.7 5.4 68.9 5.9 69.9C10.3 77.9 17 84.5 25.1 88.8C25.7 89.1 26.4 89 26.8 88.5L45 70.2C46 69.2 45.3 67.7 44 67.7Z" fill="#005C3C"/>
<path d="M30.4 59.5L4.3 33.5C3.5 32.7 2.2 33.1 1.9 34.1C0.7 38.2 0 42.6 0 47.1C0 51.9 0.7 56.6 2.1 61C2.3 61.6 2.9 62 3.5 62H29.3C30.6 62 31.3 60.4 30.4 59.5Z" fill="#005C3C"/>
<path d="M26.6 44L26.5 7.2C26.5 6.1 25.3 5.4 24.3 5.9C16.3 10.3 9.8 17 5.5 25.1C5.2 25.7 5.3 26.4 5.8 26.8L24.1 45C25 46 26.6 45.3 26.6 44Z" fill="#005C3C"/>
<path d="M34.8 30.4L60.8 4.3C61.6 3.5 61.2 2.2 60.2 1.9C56 0.7 51.6 0 47.1 0C42.3 0 37.6 0.7 33.2 2.1C32.6 2.3 32.2 2.9 32.2 3.5V29.4C32.3 30.6 33.9 31.3 34.8 30.4Z" fill="#005C3C"/>
<path d="M50.2 26.6L87 26.5C88.1 26.5 88.8 25.3 88.3 24.3C83.9 16.3 77.2 9.7 69.1 5.5C68.5 5.2 67.8 5.3 67.4 5.8L49.2 24.1C48.3 25 48.9 26.6 50.2 26.6Z" fill="#005C3C"/>
</svg>
